<svg id="svg" version="1.1" xmlns="http://www.w3.org/2000/svg" xmlns:xlink="http://www.w3.org/1999/xlink" width="400" height="46.641318124207864" viewBox="0, 0, 400,46.641318124207864"><g id="svgg"><path id="path0" d="M322.880 3.123 C 323.318 3.157,323.993 3.157,324.380 3.122 C 324.767 3.087,324.408 3.059,323.583 3.059 C 322.758 3.060,322.442 3.088,322.880 3.123 M344.276 3.125 C 344.205 3.239,348.912 3.236,354.167 3.119 C 355.313 3.093,353.573 3.056,350.302 3.036 C 347.030 3.016,344.318 3.056,344.276 3.125 M375.910 3.208 C 375.867 3.323,375.850 12.529,375.874 23.667 L 375.917 43.917 386.583 43.919 L 397.250 43.920 386.625 43.876 L 376.000 43.831 376.000 23.500 L 376.000 3.169 386.625 3.125 L 397.250 3.081 386.620 3.040 C 378.239 3.009,375.973 3.044,375.910 3.208 M3.833 23.917 L 3.833 44.339 7.958 44.295 L 12.083 44.250 12.083 23.917 L 12.083 3.583 7.958 3.539 L 3.833 3.494 3.833 23.917 M19.111 3.611 C 19.050 3.672,19.000 12.860,19.000 24.028 L 19.000 44.333 23.193 44.333 L 27.386 44.333 27.279 36.375 C 27.220 31.998,27.060 26.617,26.924 24.417 C 26.787 22.217,26.680 19.629,26.684 18.667 C 26.695 16.607,26.627 16.474,28.000 21.250 C 28.474 22.900,28.930 24.475,29.013 24.750 C 29.519 26.423,31.015 31.552,32.585 37.000 C 33.587 40.474,34.339 43.025,34.527 43.583 L 34.751 44.250 37.536 44.296 L 40.321 44.341 40.674 43.129 C 40.868 42.462,41.088 41.729,41.163 41.500 C 41.238 41.271,41.416 40.671,41.559 40.167 C 41.701 39.662,42.161 38.087,42.580 36.667 C 42.999 35.246,43.448 33.708,43.578 33.250 C 43.709 32.792,44.047 31.629,44.330 30.667 C 44.612 29.704,44.960 28.504,45.102 28.000 C 45.244 27.496,45.423 26.896,45.500 26.667 C 45.577 26.438,45.757 25.837,45.899 25.333 C 46.042 24.829,46.489 23.292,46.892 21.917 C 47.296 20.542,47.764 18.916,47.932 18.304 C 48.354 16.771,48.562 17.053,48.430 18.980 C 48.126 23.429,47.838 32.756,47.836 38.208 L 47.833 44.333 51.917 44.333 L 56.000 44.333 56.000 23.914 L 56.000 3.495 50.637 3.539 L 45.274 3.583 45.134 4.083 C 44.941 4.769,44.163 7.732,43.362 10.833 C 42.995 12.254,42.543 13.979,42.358 14.667 C 42.174 15.354,41.595 17.567,41.072 19.583 C 40.549 21.600,39.789 24.525,39.382 26.083 C 38.975 27.642,38.441 29.705,38.196 30.669 C 37.646 32.830,37.510 32.886,37.063 31.136 C 36.869 30.374,36.469 28.850,36.176 27.750 C 35.882 26.650,35.352 24.625,34.997 23.250 C 34.642 21.875,34.230 20.300,34.082 19.750 C 33.933 19.200,33.597 17.925,33.336 16.917 C 33.074 15.908,32.667 14.356,32.433 13.468 C 31.896 11.436,31.149 8.574,30.493 6.042 C 30.214 4.965,29.947 3.952,29.899 3.792 C 29.808 3.492,19.405 3.318,19.111 3.611 M62.778 3.611 C 62.717 3.672,62.667 12.860,62.667 24.028 L 62.667 44.333 66.849 44.333 L 71.031 44.333 70.952 37.375 C 70.880 30.902,70.480 19.882,70.245 17.875 C 70.029 16.027,70.577 17.289,71.494 20.750 C 71.567 21.025,71.980 22.450,72.412 23.917 C 73.085 26.201,74.123 29.761,74.915 32.500 C 75.035 32.912,75.396 34.150,75.718 35.250 C 76.966 39.509,78.210 43.763,78.289 44.042 C 78.364 44.305,78.648 44.333,81.175 44.333 C 83.701 44.333,83.986 44.305,84.061 44.042 C 84.107 43.881,84.370 43.000,84.646 42.083 C 85.323 39.830,86.260 36.623,86.862 34.500 C 87.134 33.537,87.465 32.394,87.595 31.958 C 88.048 30.451,88.356 29.415,88.450 29.083 C 88.501 28.900,88.728 28.113,88.955 27.333 C 89.727 24.675,89.850 24.250,90.061 23.500 C 90.177 23.087,90.642 21.512,91.094 20.000 L 91.917 17.250 91.969 18.417 C 91.997 19.058,91.941 21.346,91.843 23.500 C 91.389 33.518,91.320 35.871,91.367 39.917 L 91.417 44.250 95.542 44.295 L 99.668 44.339 99.626 23.961 L 99.583 3.583 94.344 3.539 C 91.462 3.515,89.049 3.553,88.981 3.623 C 88.913 3.693,88.585 4.800,88.251 6.083 C 87.917 7.367,87.457 9.129,87.228 10.000 C 86.999 10.871,86.521 12.708,86.165 14.083 C 85.810 15.458,85.398 17.033,85.251 17.583 C 85.104 18.133,84.689 19.708,84.330 21.083 C 83.971 22.458,83.412 24.596,83.088 25.833 C 82.764 27.071,82.221 29.152,81.882 30.459 C 81.542 31.766,81.212 32.741,81.147 32.626 C 81.083 32.511,80.729 31.254,80.360 29.833 C 79.991 28.412,79.501 26.537,79.271 25.667 C 79.041 24.796,78.695 23.483,78.501 22.750 C 78.307 22.017,77.849 20.254,77.482 18.833 C 77.115 17.412,76.627 15.537,76.396 14.667 C 75.356 10.735,75.111 9.804,74.666 8.083 C 74.404 7.075,74.035 5.657,73.845 4.932 C 73.655 4.207,73.500 3.588,73.500 3.557 C 73.500 3.447,62.888 3.501,62.778 3.611 M106.411 3.707 C 106.367 3.822,106.350 12.992,106.374 24.083 L 106.417 44.250 118.128 44.293 L 129.840 44.336 129.795 40.959 L 129.750 37.583 122.167 37.500 L 114.583 37.417 114.583 32.083 L 114.583 26.750 121.000 26.667 L 127.417 26.583 127.417 23.333 L 127.417 20.083 121.000 20.000 L 114.583 19.917 114.537 15.500 C 114.511 13.071,114.531 10.915,114.581 10.708 L 114.673 10.333 122.257 10.333 L 129.840 10.333 129.795 6.958 L 129.750 3.583 118.120 3.541 C 108.905 3.507,106.474 3.541,106.411 3.707 M134.667 23.917 L 134.667 44.333 140.546 44.333 C 150.371 44.333,152.935 43.630,156.583 39.936 C 160.278 36.194,161.083 33.313,161.083 23.833 C 161.083 15.361,160.529 12.955,157.713 9.209 C 154.273 4.633,150.799 3.500,140.213 3.500 L 134.667 3.500 134.667 23.917 M167.611 3.611 C 167.550 3.672,167.500 12.860,167.500 24.028 L 167.500 44.333 171.583 44.333 L 175.667 44.333 175.667 23.917 L 175.667 3.500 171.694 3.500 C 169.510 3.500,167.672 3.550,167.611 3.611 M193.250 3.708 C 193.133 4.044,192.752 5.248,191.921 7.917 C 191.492 9.292,190.855 11.317,190.504 12.417 C 190.154 13.517,189.627 15.204,189.332 16.167 C 189.038 17.129,188.697 18.217,188.574 18.583 C 188.451 18.950,188.002 20.375,187.578 21.750 C 187.153 23.125,186.703 24.550,186.577 24.917 C 186.451 25.283,186.114 26.371,185.827 27.333 C 185.540 28.296,185.241 29.271,185.163 29.500 C 185.084 29.729,184.636 31.154,184.167 32.667 C 183.698 34.179,183.248 35.604,183.169 35.833 C 183.089 36.063,182.676 37.375,182.251 38.750 C 181.826 40.125,181.265 41.901,181.005 42.696 C 180.745 43.492,180.575 44.186,180.627 44.238 C 180.679 44.290,182.624 44.333,184.949 44.333 L 189.175 44.333 189.339 43.901 C 189.429 43.664,189.721 42.595,189.988 41.526 C 190.858 38.038,191.350 36.252,191.479 36.123 C 191.548 36.053,194.108 36.015,197.168 36.039 L 202.732 36.083 203.188 37.833 C 203.439 38.796,203.884 40.483,204.178 41.583 C 204.471 42.683,204.747 43.752,204.792 43.958 L 204.872 44.333 209.281 44.333 L 213.689 44.333 213.577 43.958 C 213.188 42.661,212.614 40.819,212.420 40.250 C 212.295 39.883,211.845 38.458,211.420 37.083 C 210.996 35.708,210.582 34.396,210.500 34.167 C 210.353 33.749,208.856 28.981,208.382 27.417 C 208.243 26.958,207.957 26.058,207.747 25.417 C 207.536 24.775,207.016 23.125,206.590 21.750 C 206.164 20.375,205.713 18.950,205.588 18.583 C 205.462 18.217,205.012 16.792,204.587 15.417 C 204.162 14.042,203.748 12.729,203.667 12.500 C 203.585 12.271,203.170 10.958,202.745 9.583 C 202.319 8.208,201.752 6.414,201.485 5.596 C 201.218 4.778,201.000 4.018,201.000 3.906 C 201.000 3.445,193.410 3.252,193.250 3.708 M212.445 3.610 C 212.384 3.672,212.333 5.210,212.333 7.028 L 212.333 10.333 217.133 10.333 C 220.644 10.333,221.987 10.387,222.133 10.533 C 222.286 10.686,222.333 14.689,222.333 27.533 L 222.333 44.333 226.417 44.333 L 230.500 44.333 230.500 27.533 C 230.500 14.689,230.547 10.686,230.700 10.533 C 230.846 10.387,232.208 10.333,235.787 10.333 L 240.674 10.333 240.628 6.958 L 240.583 3.583 226.570 3.541 C 218.863 3.517,212.507 3.549,212.445 3.610 M245.500 23.916 L 245.500 44.333 257.170 44.333 L 268.840 44.333 268.795 40.958 L 268.750 37.583 261.250 37.500 L 253.750 37.417 253.750 32.083 L 253.750 26.750 260.083 26.667 L 266.417 26.583 266.462 23.292 L 266.507 20.000 260.084 20.000 L 253.662 20.000 253.706 15.208 L 253.750 10.417 261.295 10.373 L 268.840 10.330 268.795 6.957 L 268.750 3.583 257.125 3.541 L 245.500 3.498 245.500 23.916 M291.625 5.621 C 291.923 5.658,292.410 5.658,292.708 5.621 C 293.006 5.584,292.762 5.553,292.167 5.553 C 291.571 5.553,291.327 5.584,291.625 5.621 M347.371 15.032 C 347.350 19.862,347.390 23.848,347.458 23.891 C 347.572 23.961,347.570 17.573,347.454 9.417 C 347.429 7.675,347.392 10.202,347.371 15.032 M379.037 13.782 C 379.017 17.924,379.056 21.348,379.125 21.391 C 379.239 21.461,379.236 15.723,379.120 8.917 C 379.095 7.450,379.058 9.639,379.037 13.782 M147.457 10.597 C 151.959 11.527,152.698 13.267,152.796 23.167 C 152.916 35.319,151.793 37.417,145.167 37.417 L 142.917 37.417 142.874 24.083 C 142.850 16.750,142.866 10.656,142.910 10.542 C 143.026 10.238,145.887 10.273,147.457 10.597 M367.057 15.083 C 367.058 15.817,367.087 16.096,367.122 15.704 C 367.157 15.312,367.157 14.712,367.121 14.371 C 367.085 14.029,367.057 14.350,367.057 15.083 M363.872 15.167 C 363.872 15.487,363.906 15.619,363.948 15.458 C 363.990 15.298,363.990 15.035,363.948 14.875 C 363.906 14.715,363.872 14.846,363.872 15.167 M197.663 16.917 C 197.836 17.558,198.250 19.133,198.583 20.417 C 198.916 21.700,199.341 23.313,199.527 24.000 C 200.440 27.369,200.808 28.906,200.731 29.030 C 200.579 29.277,193.502 29.198,193.406 28.949 C 193.360 28.829,193.737 27.160,194.243 25.240 C 194.749 23.321,195.390 20.887,195.668 19.833 C 196.244 17.643,196.380 17.139,196.768 15.750 C 197.084 14.614,197.022 14.533,197.663 16.917 M301.481 15.882 C 301.555 15.955,302.245 15.992,303.015 15.964 L 304.417 15.914 302.883 15.832 C 302.039 15.787,301.408 15.809,301.481 15.882 M387.000 24.331 L 379.083 24.417 379.040 32.573 C 379.016 37.060,379.054 40.787,379.123 40.857 C 379.193 40.926,379.230 37.275,379.205 32.742 L 379.161 24.500 386.987 24.500 C 392.025 24.500,394.850 24.441,394.917 24.333 C 394.973 24.242,394.996 24.184,394.968 24.206 C 394.940 24.227,391.354 24.284,387.000 24.331 M349.968 26.958 C 351.280 26.986,353.380 26.986,354.635 26.958 C 355.890 26.930,354.817 26.907,352.250 26.907 C 349.683 26.907,348.657 26.930,349.968 26.958 M347.411 35.417 C 347.411 40.000,347.432 41.851,347.458 39.530 C 347.484 37.209,347.484 33.459,347.458 31.197 C 347.432 28.934,347.411 30.833,347.411 35.417 M290.875 41.448 C 291.035 41.490,291.298 41.490,291.458 41.448 C 291.619 41.406,291.487 41.372,291.167 41.372 C 290.846 41.372,290.715 41.406,290.875 41.448 M309.220 43.583 C 309.251 43.889,309.380 43.917,310.752 43.926 L 312.250 43.935 310.803 43.878 C 309.611 43.831,309.340 43.771,309.271 43.536 C 309.208 43.323,309.195 43.336,309.220 43.583 M338.000 43.650 C 338.000 43.803,337.575 43.842,336.349 43.803 C 335.441 43.774,334.732 43.806,334.775 43.875 C 334.898 44.073,337.965 44.024,338.090 43.822 C 338.151 43.724,338.155 43.599,338.100 43.544 C 338.045 43.489,338.000 43.537,338.000 43.650 M368.500 43.650 C 368.500 43.802,368.056 43.841,366.765 43.802 C 365.811 43.774,365.066 43.806,365.109 43.875 C 365.232 44.074,368.465 44.025,368.590 43.822 C 368.651 43.724,368.655 43.599,368.600 43.544 C 368.545 43.489,368.500 43.537,368.500 43.650 M345.042 43.956 C 345.477 43.990,346.190 43.990,346.625 43.956 C 347.060 43.922,346.704 43.893,345.833 43.893 C 344.962 43.893,344.606 43.922,345.042 43.956 " stroke="none" fill="#dc0d2c" fill-rule="evenodd"></path><path id="path1" d="M290.167 2.681 C 284.620 3.508,280.887 7.496,279.570 14.001 C 279.098 16.336,279.085 30.648,279.554 32.833 C 281.424 41.552,287.262 45.788,295.167 44.161 C 300.813 43.000,304.392 38.146,304.662 31.286 C 304.664 31.214,303.938 31.176,303.047 31.202 L 301.427 31.250 301.223 32.774 C 300.535 37.919,298.702 40.323,294.805 41.187 C 289.523 42.360,285.632 40.340,283.529 35.333 C 281.909 31.476,281.781 16.816,283.328 12.212 C 284.779 7.892,287.788 5.621,292.083 5.606 C 297.712 5.586,300.337 8.105,301.228 14.380 L 301.422 15.750 303.042 15.798 L 304.662 15.845 304.566 15.048 C 303.468 5.928,298.280 1.472,290.167 2.681 M322.085 3.375 C 322.046 3.490,321.706 4.558,321.329 5.750 C 320.952 6.942,320.543 8.217,320.420 8.583 C 320.037 9.722,318.580 14.278,316.130 22.000 C 315.853 22.871,315.456 24.108,315.247 24.750 C 315.038 25.392,314.405 27.379,313.839 29.167 C 313.274 30.954,312.708 32.717,312.581 33.083 C 312.455 33.450,311.890 35.212,311.325 37.000 C 310.761 38.787,310.082 40.925,309.816 41.750 C 309.110 43.945,309.052 43.833,310.891 43.833 L 312.448 43.833 313.070 41.792 C 313.412 40.669,314.185 38.119,314.788 36.125 L 315.884 32.500 323.589 32.500 L 331.294 32.500 331.826 34.208 C 332.120 35.148,332.532 36.479,332.744 37.167 C 333.572 39.862,334.376 42.448,334.582 43.083 L 334.799 43.750 336.419 43.798 L 338.039 43.846 337.929 43.381 C 337.869 43.126,337.267 41.192,336.591 39.083 C 335.916 36.975,334.901 33.787,334.335 32.000 C 333.769 30.212,333.204 28.450,333.080 28.083 C 332.845 27.391,332.097 25.051,330.337 19.500 C 329.770 17.712,329.133 15.725,328.921 15.083 C 328.709 14.442,328.181 12.792,327.749 11.417 C 326.709 8.112,325.518 4.383,325.286 3.708 L 325.100 3.167 323.628 3.167 C 322.600 3.167,322.135 3.229,322.085 3.375 M344.278 3.278 C 344.217 3.339,344.167 12.489,344.167 23.611 L 344.167 43.833 345.750 43.833 L 347.333 43.833 347.333 35.520 C 347.333 28.679,347.374 27.174,347.562 27.018 C 347.724 26.883,349.127 26.841,352.354 26.872 L 356.917 26.917 358.000 29.088 C 358.596 30.282,359.640 32.420,360.321 33.838 C 361.002 35.256,362.369 38.085,363.358 40.125 L 365.156 43.833 366.828 43.833 C 368.880 43.833,368.855 44.076,367.153 40.649 C 366.412 39.157,365.295 36.882,364.671 35.593 C 364.047 34.304,362.778 31.717,361.851 29.844 C 359.888 25.874,359.953 26.171,360.959 25.761 C 368.865 22.545,369.161 8.092,361.397 4.415 C 360.087 3.795,359.133 3.508,357.801 3.335 C 356.428 3.157,344.450 3.106,344.278 3.278 M376.000 23.500 L 376.000 43.833 386.667 43.833 L 397.333 43.833 397.333 42.418 L 397.333 41.003 388.208 40.960 L 379.083 40.917 379.083 32.667 L 379.083 24.417 387.000 24.333 L 394.917 24.250 394.917 22.917 L 394.917 21.583 387.000 21.500 L 379.083 21.417 379.083 13.833 L 379.083 6.250 388.083 6.167 L 397.083 6.083 397.131 4.625 L 397.180 3.167 386.590 3.167 L 376.000 3.167 376.000 23.500 M357.547 6.326 C 365.208 7.581,366.335 20.127,359.079 23.385 L 357.917 23.907 352.667 23.912 L 347.417 23.917 347.373 15.250 C 347.349 10.483,347.366 6.490,347.410 6.375 C 347.508 6.119,356.028 6.078,357.547 6.326 M324.351 9.951 C 324.631 10.849,325.149 12.521,325.502 13.667 C 325.855 14.813,326.606 17.250,327.171 19.083 C 327.737 20.917,328.298 22.754,328.418 23.167 C 328.759 24.337,329.419 26.454,329.897 27.912 C 330.137 28.643,330.333 29.299,330.333 29.370 C 330.333 29.442,327.296 29.500,323.583 29.500 C 319.871 29.500,316.833 29.479,316.833 29.454 C 316.833 29.428,317.012 28.847,317.230 28.162 C 317.449 27.477,317.864 26.129,318.155 25.167 C 318.445 24.204,318.784 23.117,318.910 22.750 C 319.035 22.383,319.299 21.521,319.498 20.833 C 319.696 20.146,319.922 19.396,320.001 19.167 C 320.165 18.687,321.393 14.733,322.174 12.167 C 323.718 7.099,323.523 7.298,324.351 9.951 " stroke="none" fill="#ffffff" fill-rule="evenodd"></path><path id="path2" d="M0.000 23.250 L 0.000 46.500 200.000 46.500 L 400.000 46.500 400.000 23.250 L 400.000 0.000 200.000 0.000 L 0.000 0.000 0.000 23.250 M295.917 2.905 C 300.837 4.134,303.954 8.379,304.581 14.702 C 304.713 16.029,304.686 16.047,302.666 15.966 L 301.419 15.917 301.293 15.000 C 300.337 8.028,297.703 5.470,291.713 5.701 C 286.367 5.906,283.295 9.467,282.515 16.362 C 282.245 18.758,282.284 28.315,282.575 30.750 C 283.384 37.525,286.305 41.012,291.500 41.404 C 297.303 41.842,300.610 38.754,301.259 32.292 L 301.372 31.167 303.036 31.167 L 304.699 31.167 304.590 32.208 C 303.736 40.333,299.428 44.517,291.937 44.496 C 285.760 44.478,281.361 40.568,279.651 33.575 C 279.214 31.787,278.972 18.341,279.323 15.359 C 280.421 6.046,287.430 0.785,295.917 2.905 M325.245 3.542 C 325.377 3.840,325.946 5.546,326.510 7.333 C 327.074 9.121,327.760 11.296,328.035 12.167 C 328.310 13.037,328.709 14.275,328.921 14.917 C 329.134 15.558,329.770 17.546,330.335 19.333 C 330.899 21.121,331.463 22.883,331.588 23.250 C 331.713 23.617,332.277 25.379,332.841 27.167 C 333.406 28.954,334.041 30.942,334.253 31.583 C 334.609 32.662,336.007 37.064,337.191 40.833 C 337.464 41.704,337.795 42.713,337.927 43.075 C 338.248 43.958,338.136 44.021,336.338 43.965 L 334.789 43.917 334.301 42.333 C 334.032 41.462,333.599 40.075,333.337 39.250 C 333.076 38.425,332.623 36.962,332.330 36.000 C 332.038 35.037,331.673 33.875,331.518 33.417 L 331.237 32.583 323.584 32.583 L 315.931 32.583 315.731 33.250 C 314.934 35.897,313.116 41.791,312.800 42.750 L 312.417 43.917 310.932 43.965 C 308.986 44.029,309.008 44.073,309.799 41.640 C 310.167 40.509,310.931 38.121,311.495 36.333 C 312.060 34.546,312.587 32.896,312.667 32.667 C 312.746 32.438,313.270 30.787,313.831 29.000 C 314.393 27.212,314.955 25.450,315.081 25.083 C 315.208 24.717,315.774 22.954,316.339 21.167 C 316.905 19.379,317.541 17.392,317.754 16.750 C 317.966 16.108,318.527 14.346,319.000 12.833 C 319.473 11.321,320.032 9.558,320.244 8.917 C 320.455 8.275,320.865 7.000,321.154 6.083 C 321.444 5.167,321.797 4.098,321.938 3.708 L 322.194 3.000 323.600 3.000 L 325.005 3.000 325.245 3.542 M358.333 3.325 C 364.497 4.633,367.868 9.858,367.020 16.786 C 366.504 21.002,364.309 24.331,361.112 25.744 C 359.961 26.254,359.634 25.215,363.267 32.607 C 369.613 45.522,369.139 44.000,366.818 44.000 L 365.156 44.000 364.183 41.958 C 363.648 40.835,362.683 38.829,362.039 37.500 C 359.955 33.198,357.980 29.108,357.472 28.042 L 356.976 27.000 352.238 27.000 L 347.500 27.000 347.497 35.292 C 347.496 39.852,347.433 43.680,347.358 43.799 C 347.259 43.954,346.812 44.000,345.736 43.965 L 344.250 43.917 344.207 23.667 C 344.184 12.529,344.202 3.316,344.249 3.194 C 344.360 2.903,356.899 3.020,358.333 3.325 M397.167 4.583 L 397.167 6.167 388.165 6.167 L 379.163 6.167 379.207 13.792 L 379.250 21.417 387.131 21.460 L 395.013 21.503 394.965 22.960 L 394.917 24.417 387.040 24.460 L 379.164 24.503 379.207 32.710 L 379.250 40.917 388.298 40.960 L 397.346 41.003 397.298 42.460 L 397.250 43.917 386.583 43.917 L 375.917 43.917 375.874 23.667 C 375.850 12.529,375.867 3.323,375.910 3.208 C 375.973 3.045,378.261 3.000,386.578 3.000 L 397.167 3.000 397.167 4.583 M12.083 23.917 L 12.083 44.250 7.958 44.295 L 3.833 44.339 3.833 23.917 L 3.833 3.494 7.958 3.539 L 12.083 3.583 12.083 23.917 M29.899 3.792 C 29.947 3.952,30.214 4.965,30.493 6.042 C 31.149 8.574,31.896 11.436,32.433 13.468 C 32.667 14.356,33.074 15.908,33.336 16.917 C 33.597 17.925,33.933 19.200,34.082 19.750 C 34.230 20.300,34.642 21.875,34.997 23.250 C 35.352 24.625,35.882 26.650,36.176 27.750 C 36.469 28.850,36.869 30.374,37.063 31.136 C 37.510 32.886,37.646 32.830,38.196 30.669 C 38.441 29.705,38.975 27.642,39.382 26.083 C 39.789 24.525,40.549 21.600,41.072 19.583 C 41.595 17.567,42.174 15.354,42.358 14.667 C 42.543 13.979,42.995 12.254,43.362 10.833 C 44.163 7.732,44.941 4.769,45.134 4.083 L 45.274 3.583 50.637 3.539 L 56.000 3.495 56.000 23.914 L 56.000 44.333 51.917 44.333 L 47.833 44.333 47.836 38.208 C 47.838 32.756,48.126 23.429,48.430 18.980 C 48.562 17.053,48.354 16.771,47.932 18.304 C 47.764 18.916,47.296 20.542,46.892 21.917 C 46.489 23.292,46.042 24.829,45.899 25.333 C 45.757 25.837,45.577 26.438,45.500 26.667 C 45.423 26.896,45.244 27.496,45.102 28.000 C 44.960 28.504,44.612 29.704,44.330 30.667 C 44.047 31.629,43.709 32.792,43.578 33.250 C 43.448 33.708,42.999 35.246,42.580 36.667 C 42.161 38.087,41.701 39.662,41.559 40.167 C 41.416 40.671,41.238 41.271,41.163 41.500 C 41.088 41.729,40.868 42.462,40.674 43.129 L 40.321 44.341 37.536 44.296 L 34.751 44.250 34.527 43.583 C 34.339 43.025,33.587 40.474,32.585 37.000 C 31.015 31.552,29.519 26.423,29.013 24.750 C 28.930 24.475,28.474 22.900,28.000 21.250 C 26.627 16.474,26.695 16.607,26.684 18.667 C 26.680 19.629,26.787 22.217,26.924 24.417 C 27.060 26.617,27.220 31.998,27.279 36.375 L 27.386 44.333 23.193 44.333 L 19.000 44.333 19.000 24.028 C 19.000 12.860,19.050 3.672,19.111 3.611 C 19.405 3.318,29.808 3.492,29.899 3.792 M73.500 3.557 C 73.500 3.588,73.655 4.207,73.845 4.932 C 74.035 5.657,74.404 7.075,74.666 8.083 C 75.111 9.804,75.356 10.735,76.396 14.667 C 76.627 15.537,77.115 17.412,77.482 18.833 C 77.849 20.254,78.307 22.017,78.501 22.750 C 78.695 23.483,79.041 24.796,79.271 25.667 C 79.501 26.537,79.991 28.412,80.360 29.833 C 80.729 31.254,81.083 32.511,81.147 32.626 C 81.212 32.741,81.542 31.766,81.882 30.459 C 82.221 29.152,82.764 27.071,83.088 25.833 C 83.412 24.596,83.971 22.458,84.330 21.083 C 84.689 19.708,85.104 18.133,85.251 17.583 C 85.398 17.033,85.810 15.458,86.165 14.083 C 86.521 12.708,86.999 10.871,87.228 10.000 C 87.457 9.129,87.917 7.367,88.251 6.083 C 88.585 4.800,88.913 3.693,88.981 3.623 C 89.049 3.553,91.462 3.515,94.344 3.539 L 99.583 3.583 99.626 23.961 L 99.668 44.339 95.542 44.295 L 91.417 44.250 91.367 39.917 C 91.320 35.871,91.389 33.518,91.843 23.500 C 91.941 21.346,91.997 19.058,91.969 18.417 L 91.917 17.250 91.094 20.000 C 90.642 21.512,90.177 23.087,90.061 23.500 C 89.850 24.250,89.727 24.675,88.955 27.333 C 88.728 28.113,88.501 28.900,88.450 29.083 C 88.356 29.415,88.048 30.451,87.595 31.958 C 87.465 32.394,87.134 33.537,86.862 34.500 C 86.260 36.623,85.323 39.830,84.646 42.083 C 84.370 43.000,84.107 43.881,84.061 44.042 C 83.986 44.305,83.701 44.333,81.175 44.333 C 78.648 44.333,78.364 44.305,78.289 44.042 C 78.210 43.763,76.966 39.509,75.718 35.250 C 75.396 34.150,75.035 32.912,74.915 32.500 C 74.123 29.761,73.085 26.201,72.412 23.917 C 71.980 22.450,71.567 21.025,71.494 20.750 C 70.577 17.289,70.029 16.027,70.245 17.875 C 70.480 19.882,70.880 30.902,70.952 37.375 L 71.031 44.333 66.849 44.333 L 62.667 44.333 62.667 24.028 C 62.667 12.860,62.717 3.672,62.778 3.611 C 62.888 3.501,73.500 3.447,73.500 3.557 M129.795 6.958 L 129.840 10.333 122.257 10.333 L 114.673 10.333 114.581 10.708 C 114.531 10.915,114.511 13.071,114.537 15.500 L 114.583 19.917 121.000 20.000 L 127.417 20.083 127.417 23.333 L 127.417 26.583 121.000 26.667 L 114.583 26.750 114.583 32.083 L 114.583 37.417 122.167 37.500 L 129.750 37.583 129.795 40.959 L 129.840 44.336 118.128 44.293 L 106.417 44.250 106.374 24.083 C 106.350 12.992,106.367 3.822,106.411 3.707 C 106.474 3.541,108.905 3.507,118.120 3.541 L 129.750 3.583 129.795 6.958 M147.787 3.751 C 154.641 4.599,159.044 8.761,160.709 15.963 C 161.243 18.275,161.279 29.121,160.761 31.667 C 159.532 37.699,156.064 41.838,150.857 43.485 C 148.543 44.217,147.127 44.333,140.546 44.333 L 134.667 44.333 134.667 23.917 L 134.667 3.500 140.213 3.500 C 144.145 3.500,146.350 3.573,147.787 3.751 M175.667 23.917 L 175.667 44.333 171.583 44.333 L 167.500 44.333 167.500 24.028 C 167.500 12.860,167.550 3.672,167.611 3.611 C 167.672 3.550,169.510 3.500,171.694 3.500 L 175.667 3.500 175.667 23.917 M200.736 3.601 C 200.881 3.657,201.000 3.794,201.000 3.906 C 201.000 4.018,201.218 4.778,201.485 5.596 C 201.752 6.414,202.319 8.208,202.745 9.583 C 203.170 10.958,203.585 12.271,203.667 12.500 C 203.748 12.729,204.162 14.042,204.587 15.417 C 205.012 16.792,205.462 18.217,205.588 18.583 C 205.713 18.950,206.164 20.375,206.590 21.750 C 207.016 23.125,207.536 24.775,207.747 25.417 C 207.957 26.058,208.243 26.958,208.382 27.417 C 208.856 28.981,210.353 33.749,210.500 34.167 C 210.582 34.396,210.996 35.708,211.420 37.083 C 211.845 38.458,212.295 39.883,212.420 40.250 C 212.614 40.819,213.188 42.661,213.577 43.958 L 213.689 44.333 209.281 44.333 L 204.872 44.333 204.792 43.958 C 204.747 43.752,204.471 42.683,204.178 41.583 C 203.884 40.483,203.439 38.796,203.188 37.833 L 202.732 36.083 197.168 36.039 C 194.108 36.015,191.548 36.053,191.479 36.123 C 191.350 36.252,190.858 38.038,189.988 41.526 C 189.721 42.595,189.429 43.664,189.339 43.901 L 189.175 44.333 184.949 44.333 C 182.624 44.333,180.679 44.290,180.627 44.238 C 180.575 44.186,180.745 43.492,181.005 42.696 C 181.265 41.901,181.826 40.125,182.251 38.750 C 182.676 37.375,183.089 36.063,183.169 35.833 C 183.248 35.604,183.698 34.179,184.167 32.667 C 184.636 31.154,185.084 29.729,185.163 29.500 C 185.241 29.271,185.540 28.296,185.827 27.333 C 186.114 26.371,186.451 25.283,186.577 24.917 C 186.703 24.550,187.153 23.125,187.578 21.750 C 188.002 20.375,188.451 18.950,188.574 18.583 C 188.697 18.217,189.038 17.129,189.332 16.167 C 189.627 15.204,190.154 13.517,190.504 12.417 C 190.855 11.317,191.492 9.292,191.921 7.917 C 192.752 5.248,193.133 4.044,193.250 3.708 C 193.327 3.489,200.187 3.390,200.736 3.601 M240.628 6.958 L 240.674 10.333 235.787 10.333 C 232.208 10.333,230.846 10.387,230.700 10.533 C 230.547 10.686,230.500 14.689,230.500 27.533 L 230.500 44.333 226.417 44.333 L 222.333 44.333 222.333 27.533 C 222.333 14.689,222.286 10.686,222.133 10.533 C 221.987 10.387,220.644 10.333,217.133 10.333 L 212.333 10.333 212.333 7.028 C 212.333 5.210,212.384 3.672,212.445 3.610 C 212.507 3.549,218.863 3.517,226.570 3.541 L 240.583 3.583 240.628 6.958 M268.795 6.957 L 268.840 10.330 261.295 10.373 L 253.750 10.417 253.706 15.208 L 253.662 20.000 260.084 20.000 L 266.507 20.000 266.462 23.292 L 266.417 26.583 260.083 26.667 L 253.750 26.750 253.750 32.083 L 253.750 37.417 261.250 37.500 L 268.750 37.583 268.795 40.958 L 268.840 44.333 257.170 44.333 L 245.500 44.333 245.500 23.916 L 245.500 3.498 257.125 3.541 L 268.750 3.583 268.795 6.957 M347.540 15.023 L 347.583 23.917 352.000 23.966 C 357.697 24.031,358.757 23.835,360.721 22.356 C 365.100 19.059,364.809 10.080,360.237 7.400 C 358.413 6.331,358.198 6.298,352.624 6.210 L 347.497 6.129 347.540 15.023 M323.181 9.031 C 322.973 9.701,322.705 10.587,322.585 11.000 C 322.464 11.412,322.126 12.500,321.833 13.417 C 321.540 14.333,321.202 15.421,321.082 15.833 C 320.962 16.246,320.516 17.708,320.090 19.083 C 319.665 20.458,318.914 22.896,318.421 24.500 C 317.928 26.104,317.408 27.792,317.265 28.250 C 317.121 28.708,317.003 29.177,317.002 29.292 C 317.000 29.455,318.427 29.500,323.583 29.500 C 328.740 29.500,330.166 29.455,330.165 29.292 C 330.162 29.014,329.816 27.782,329.169 25.750 C 328.564 23.846,327.409 20.112,327.083 19.000 C 326.962 18.587,326.400 16.750,325.834 14.917 C 325.268 13.083,324.579 10.833,324.302 9.917 C 323.611 7.631,323.613 7.633,323.181 9.031 M142.910 10.542 C 142.866 10.656,142.850 16.750,142.874 24.083 L 142.917 37.417 145.167 37.417 C 151.793 37.417,152.916 35.319,152.796 23.167 C 152.708 14.325,152.228 12.643,149.374 11.188 C 147.955 10.463,143.124 9.981,142.910 10.542 M196.768 15.750 C 196.380 17.139,196.244 17.643,195.668 19.833 C 195.390 20.887,194.749 23.321,194.243 25.240 C 193.737 27.160,193.360 28.829,193.406 28.949 C 193.502 29.198,200.579 29.277,200.731 29.030 C 200.808 28.906,200.440 27.369,199.527 24.000 C 199.341 23.313,198.916 21.700,198.583 20.417 C 197.864 17.645,197.405 15.935,197.198 15.250 C 197.050 14.761,197.040 14.772,196.768 15.750 " stroke="none" fill="#1c1c1c" fill-rule="evenodd"></path></g></svg>